<?xml version="1.0" standalone="no"?><!DOCTYPE svg PUBLIC "-//W3C//DTD SVG 1.1//EN" "http://www.w3.org/Graphics/SVG/1.1/DTD/svg11.dtd"><svg t="1626499693843" class="icon" viewBox="0 0 1024 1024" version="1.1" xmlns="http://www.w3.org/2000/svg" p-id="3655" xmlns:xlink="http://www.w3.org/1999/xlink" width="200" height="200"><defs><style type="text/css"></style></defs><path d="M950.857143 877.714286 264.374857 877.714286 0 1023.561143 0 438.747429 0 438.784 0 73.142857C0 32.731429 32.731429 0 73.142857 0L950.857143 0C991.232 0 1024 32.731429 1024 73.142857L1024 804.571429C1024 844.946286 991.232 877.714286 950.857143 877.714286ZM950.857143 109.714286C950.857143 89.526857 934.473143 73.142857 914.285714 73.142857L109.714286 73.142857C89.526857 73.142857 73.142857 89.526857 73.142857 109.714286L73.142857 585.106286 73.142857 768 73.142857 877.970286 224.950857 804.571429 914.285714 804.571429C934.473143 804.571429 950.857143 788.187429 950.857143 768L950.857143 109.714286ZM694.857143 365.714286 182.857143 365.714286C162.669714 365.714286 146.285714 349.330286 146.285714 329.142857 146.285714 308.955429 162.669714 292.571429 182.857143 292.571429L694.857143 292.571429C715.044571 292.571429 731.428571 308.955429 731.428571 329.142857 731.428571 349.330286 715.044571 365.714286 694.857143 365.714286ZM182.857143 512 402.285714 512C422.473143 512 438.857143 528.384 438.857143 548.571429 438.857143 568.758857 422.473143 585.142857 402.285714 585.142857L182.857143 585.142857C162.669714 585.142857 146.285714 568.758857 146.285714 548.571429 146.285714 528.384 162.669714 512 182.857143 512Z" p-id="3656"></path></svg>